<svg width="138" height="28" viewBox="0 0 138 28" fill="none" xmlns="http://www.w3.org/2000/svg">
<path d="M0.0531006 23V18.52H9.0131V14.04H2.2931V9.55998H9.0131V5.07998H0.0531006V0.599976H15.7331V9.55998H13.4931V11.8H15.7331V23H0.0531006Z" fill="black"/>
<path d="M27.8881 23V14.04H25.6481V23H18.9281V0.599976H34.6081V23H27.8881ZM27.8881 5.07998H25.6481V9.55998H27.8881V5.07998Z" fill="black"/>
<path d="M55.7231 27.48V23H42.2831V27.48H37.8031V18.52H40.0431V14.04H42.2831V0.599976H57.9631V18.52H60.2031V27.48H55.7231ZM51.2431 5.07998H49.0031V16.28H46.7631V18.52H51.2431V5.07998Z" fill="black"/>
<path d="M72.3568 23V14.04H70.1169V23H63.3969V0.599976H79.0769V23H72.3568ZM72.3568 5.07998H70.1169V9.55998H72.3568V5.07998Z" fill="black"/>
<path d="M91.2318 23V14.04H88.9919V23H82.2719V0.599976H88.9919V9.55998H91.2318V0.599976H97.9519V23H91.2318Z" fill="black"/>
<path d="M112.347 23V14.04H110.107V18.52H107.867V23H101.147V0.599976H107.867V9.55998H110.107V5.07998H112.347V0.599976H119.067V23H112.347Z" fill="black"/>
<path d="M122.272 23V0.599976H137.952V5.07998H128.992V9.55998H135.712V14.04H128.992V18.52H137.952V23H122.272Z" fill="black"/>
</svg>
