<svg width="1024" height="89" viewBox="0 0 1024 89" fill="none" xmlns="http://www.w3.org/2000/svg">
<path d="M0 89V0H53.4354V17.8H26.7177V71.2H53.4354V89H0Z" fill="white"/>
<path d="M110.628 89V53.4H101.722V71.2H92.8162V89H66.0985V0H92.8162V35.6H101.722V17.8H110.628V0H137.346V89H110.628Z" fill="white"/>
<path d="M150.088 89V0H203.524V17.8H176.806V71.2H203.524V89H150.088Z" fill="white"/>
<path d="M233.999 89V17.8H216.187V0H278.528V17.8H260.716V89H233.999Z" fill="white"/>
<path d="M291.231 89V0H353.572V17.8H317.949V35.6H344.666V53.4H317.949V71.2H353.572V89H291.231Z" fill="white"/>
<path d="M428.616 89V53.4H419.711V71.2H401.899V53.4H392.993V89H366.275V0H392.993V17.8H401.899V35.6H419.711V17.8H428.616V0H455.334V89H428.616Z" fill="white"/>
<path d="M503.656 89V53.4H494.75V89H468.032V0H530.373V89H503.656ZM503.656 17.8H494.75V35.6H503.656V17.8Z" fill="white"/>
<path d="M568.547 89V0H630.888V17.8H595.264V35.6H630.888V89H568.547ZM604.17 53.4H595.264V71.2H604.17V53.4Z" fill="white"/>
<path d="M679.214 89V53.4H670.308V89H643.591V0H705.932V89H679.214ZM679.214 17.8H670.308V35.6H679.214V17.8Z" fill="white"/>
<path d="M763.164 89V17.8H754.258V71.2H745.353V89H718.635V62.3H727.541V0H789.882V89H763.164Z" fill="white"/>
<path d="M847.154 89V17.8H838.248V71.2H829.342V89H802.625V62.3H811.531V0H873.872V89H847.154Z" fill="white"/>
<path d="M886.615 89V0H948.956V89H886.615ZM922.238 17.8H913.332V71.2H922.238V17.8Z" fill="white"/>
<path d="M961.659 89V0H1024V35.6H1015.09V44.5H1024V89H961.659ZM997.282 17.8H988.376V35.6H997.282V17.8ZM997.282 53.4H988.376V71.2H997.282V53.4Z" fill="white"/>
</svg>
